<?xml version="1.0" encoding="utf-8"?>
<!-- Generator: Adobe Illustrator 21.0.0, SVG Export Plug-In . SVG Version: 6.00 Build 0)  -->
<svg version="1.1" id="Capa_1" xmlns="http://www.w3.org/2000/svg" xmlns:xlink="http://www.w3.org/1999/xlink" x="0px" y="0px"
	 viewBox="0 0 512 512" style="enable-background:new 0 0 512 512;" xml:space="preserve">
<style type="text/css">
	.st0{fill:#7A7A7A;}
</style>
<g>
	<g>
		<path class="st0" d="M299.3,255.5h-86.6c-85.1,0-154.4,69.3-154.4,154.4V512h395.4V409.9C453.7,324.8,384.4,255.5,299.3,255.5z
			 M88.3,482v-72.1c0-68.6,55.8-124.4,124.4-124.4h86.6c68.6,0,124.4,55.8,124.4,124.4V482H88.3z"/>
	</g>
</g>
<g>
	<g>
		<path class="st0" d="M256,0c-65.8,0-119.4,53.6-119.4,119.4S190.2,238.8,256,238.8s119.4-53.6,119.4-119.4S321.8,0,256,0z
			 M256,208.8c-49.3,0-89.4-40.1-89.4-89.4S206.7,30,256,30s89.4,40.1,89.4,89.4S305.3,208.8,256,208.8z"/>
	</g>
</g>
</svg>
